HIERARCHY
ROOT Hips
{
	OFFSET -3.958830 18.904000 13.208200
	CHANNELS 6 Xposition Yposition Zposition Zrotation Yrotation Xrotation 
	JOINT LHipJoint
	{
		OFFSET 0.000000 0.000000 0.000000
		CHANNELS 3 Zrotation Yrotation Xrotation
		JOINT LeftUpLeg
		{
			OFFSET 1.800000 -1.400000 0.085000
			CHANNELS 3 Zrotation Yrotation Xrotation
			JOINT LeftLeg
			{
				OFFSET 2.215000 -6.000000 0.000000
				CHANNELS 3 Zrotation Yrotation Xrotation
				JOINT LeftFoot
				{
					OFFSET 2.500000 -6.900000 0.000000
					CHANNELS 3 Zrotation Yrotation Xrotation
					JOINT LeftToeBase
					{
						OFFSET 0.200000 -0.500000 1.950000
						CHANNELS 3 Zrotation Yrotation Xrotation
						End Site
						{
							OFFSET 0.000000 0.000000 0.000000
						}
					}
				}
			}
		}
	}
	JOINT RHipJoint
	{
		OFFSET 0.000000 0.000000 0.000000
		CHANNELS 3 Zrotation Yrotation Xrotation
		JOINT RightUpLeg
		{
			OFFSET -1.800000 -1.400000 0.085000
			CHANNELS 3 Zrotation Yrotation Xrotation
			JOINT RightLeg
			{
				OFFSET -2.215000 -6.000000 0.000000
				CHANNELS 3 Zrotation Yrotation Xrotation
				JOINT RightFoot
				{
					OFFSET -2.500000 -6.900000 0.000000
					CHANNELS 3 Zrotation Yrotation Xrotation
					JOINT RightToeBase
					{
						OFFSET -0.200000 -0.500000 1.950000
						CHANNELS 3 Zrotation Yrotation Xrotation
						End Site
						{
							OFFSET 0.000000 0.000000 0.000000
						}
					}
				}
			}
		}
	}
	JOINT LowerBack
	{
		OFFSET 0.000000 0.000000 0.000000
		CHANNELS 3 Zrotation Yrotation Xrotation
		JOINT Spine
		{
			OFFSET -0.087000 1.940000 -0.288900
			CHANNELS 3 Zrotation Yrotation Xrotation
			JOINT Spine1
			{
				OFFSET 0.000000 1.950000 0.060000
				CHANNELS 3 Zrotation Yrotation Xrotation
				JOINT Neck
				{
					OFFSET 0.000000 0.000000 0.000000
					CHANNELS 3 Zrotation Yrotation Xrotation
					JOINT Neck1
					{
						OFFSET 0.000000 1.600000 0.340000
						CHANNELS 3 Zrotation Yrotation Xrotation
						JOINT Head
						{
							OFFSET 0.000000 1.667000 -0.240000
							CHANNELS 3 Zrotation Yrotation Xrotation
							End Site
							{
								OFFSET 0.000000 0.000000 0.000000
							}
						}
					}
				}
				JOINT LeftShoulder
				{
					OFFSET 0.000000 0.000000 0.000000
					CHANNELS 3 Zrotation Yrotation Xrotation
					JOINT LeftArm
					{
						OFFSET 2.700000 1.550000 -0.730000
						CHANNELS 3 Zrotation Yrotation Xrotation
						JOINT LeftForeArm
						{
							OFFSET 5.450000 0.000000 0.000000
							CHANNELS 3 Zrotation Yrotation Xrotation
							JOINT LeftHand
							{
								OFFSET 3.450000 0.000000 0.000000
								CHANNELS 3 Zrotation Yrotation Xrotation
								JOINT LeftHandIndex1
								{
									OFFSET 0.750000 0.000000 0.000000
									CHANNELS 3 Zrotation Yrotation Xrotation
									End Site
									{
										OFFSET 0.000000 0.000000 0.000000
									}
								}
							}
						}
					}
				}
				JOINT RightShoulder
				{
					OFFSET 0.000000 0.000000 0.000000
					CHANNELS 3 Zrotation Yrotation Xrotation
					JOINT RightArm
					{
						OFFSET -2.700000 1.550000 -0.730000
						CHANNELS 3 Zrotation Yrotation Xrotation
						JOINT RightForeArm
						{
							OFFSET -5.450000 0.000000 0.000000
							CHANNELS 3 Zrotation Yrotation Xrotation
							JOINT RightHand
							{
								OFFSET -3.450000 0.000000 0.000000
								CHANNELS 3 Zrotation Yrotation Xrotation
								JOINT RightHandIndex1
								{
									OFFSET -0.750000 0.000000 0.000000
									CHANNELS 3 Zrotation Yrotation Xrotation
									End Site
									{
										OFFSET 0.000000 0.000000 0.000000
									}
								}
							}
						}
					}
				}
			}
		}
	}
}
MOTION
Frames: 10
Frame Time: 0.016667
-0.280560 16.672850 -2.488280 -6.665418 -12.732795 21.257071 -15.518616 12.774419 2.806108 0.338944 0.224112 4.285690 -6.763881 4.652514 -0.637848 -0.401900 4.983613 3.186176 0.752040 0.425180 0.450380 18.447649 -7.920746 4.478512 17.217073 10.828007 -45.983896 3.535113 -1.295440 3.028744 0.257600 -0.634771 4.289037 0.456640 0.419700 0.259240 -3.469949 -4.471454 -7.647346 13.888555 -11.308395 8.662130 -2.254592 -10.013766 4.175139 -1.368621 -6.460812 -9.026050 -11.785622 10.246247 13.596578 -2.614940 6.499110 -12.052220 -14.728517 -6.203957 1.886039 -22.005189 -7.522002 -2.547789 10.923049 -30.339064 -3.360984 -3.881140 3.101093 0.386480 0.355180 -0.217060 0.364960 18.378331 6.056267 6.374736 40.676584 -11.757346 -11.820134 36.479933 37.650158 6.304454 1.596750 -1.965677 -0.257980 0.304120 -0.144660 -0.267140 
-0.281850 16.643420 -2.478330 -7.003889 -13.182633 21.311444 -15.513443 12.771323 2.815944 0.402351 0.244656 4.544161 -6.803700 4.683272 -0.699214 -0.375407 5.012789 3.188557 0.722640 0.386100 0.431480 18.451162 -7.918899 4.493082 17.505624 10.934951 -45.582085 3.721172 -1.296862 2.663391 0.263569 -0.634567 4.303883 0.427470 0.432000 0.255730 -3.484537 -4.461990 -7.682287 14.103823 -11.372523 8.946288 -2.125745 -10.047576 4.031622 -1.285954 -6.510534 -9.235343 -11.930357 10.580671 13.872247 -2.511260 6.864570 -11.647320 -15.004810 -6.558432 2.240926 -21.650403 -6.453841 -2.574094 9.778902 -29.477439 -2.993461 -3.879420 3.099456 0.392890 0.356130 -0.223080 0.365690 18.504425 6.488275 6.432158 40.195422 -11.457956 -11.696118 36.518094 37.327854 6.278250 1.612285 -1.949787 -0.267360 0.302930 -0.137080 -0.265730 
-0.284590 16.594790 -2.450730 -7.945337 -14.255804 21.301931 -15.492738 12.778834 2.842669 0.694503 0.275799 5.187800 -6.771399 4.747209 -0.751396 -0.310830 5.032833 3.179457 0.699240 0.353230 0.426010 18.460414 -7.943043 4.520058 18.228697 11.102595 -44.167043 4.296115 -1.290680 1.643057 0.248697 -0.625260 4.322031 0.377620 0.398350 0.248060 -3.526937 -4.424272 -7.779185 14.771887 -11.331364 10.078442 -1.838860 -9.833536 3.364759 -1.080334 -6.842002 -9.529631 -12.576467 10.839093 14.545077 -2.410280 7.296690 -12.065620 -16.439346 -7.174233 2.571228 -20.214096 -4.873004 -2.461760 6.626109 -27.375817 -2.072331 -3.841750 3.107624 0.420490 0.317420 -0.198900 0.355170 19.554076 7.448498 6.753858 38.520099 -11.755505 -11.674728 36.335466 37.463328 6.352104 1.642613 -1.928112 -0.253610 0.279890 -0.140530 -0.266960 
-0.289740 16.541480 -2.402780 -8.949311 -15.617212 21.496747 -15.495038 12.826350 2.894202 0.767600 0.366285 5.843389 -6.703285 4.817665 -0.881964 -0.239388 5.077343 3.179056 0.625560 0.254420 0.393850 18.444143 -7.937257 4.551292 18.892181 11.240774 -42.697147 5.223625 -1.309110 0.443000 0.247607 -0.644532 4.338725 0.294340 0.391690 0.236460 -3.496020 -4.502869 -7.907768 15.097606 -11.333021 11.171790 -1.041647 -9.699302 2.501787 -0.668590 -7.057866 -10.099975 -13.074225 11.268777 15.398568 -2.701900 8.173890 -11.534540 -18.048751 -8.066204 3.345581 -19.568382 -2.016923 -2.533215 3.276946 -25.120602 -1.314736 -3.813390 3.110590 0.448760 0.296060 -0.197220 0.338060 20.428923 8.758118 7.124954 36.536728 -11.827255 -11.425367 35.075596 35.947582 5.753652 1.686330 -1.874880 -0.266390 0.257130 -0.122300 -0.273580 
-0.307950 16.499570 -2.341040 -10.225262 -17.304757 21.490045 -15.513176 12.937784 2.959809 1.011882 0.446613 6.693456 -6.679565 4.968648 -0.625942 -0.154783 5.131006 3.166735 0.583300 0.189430 0.391180 18.403608 -7.908143 4.599795 19.566138 11.402377 -40.682522 6.563783 -1.370079 -0.454447 0.210936 -0.660867 4.356250 0.214990 0.352060 0.218190 -3.399238 -4.717013 -8.075170 15.138356 -11.156878 12.915888 0.311544 -9.310245 1.225741 -0.271765 -7.641025 -10.637522 -14.373904 11.954038 16.775974 -2.670160 9.069910 -12.350390 -19.554050 -8.363260 3.931764 -19.794382 0.728425 -2.564774 -0.463592 -22.545901 -0.712079 -3.745736 3.086337 0.511280 0.235730 -0.157800 0.323710 21.303751 9.930077 7.447304 33.785798 -11.813065 -10.839486 34.372570 33.830596 5.308202 1.739184 -1.795757 -0.265500 0.248120 -0.121430 -0.282610 
-0.331030 16.475420 -2.254560 -11.483192 -19.308816 21.206571 -15.543114 13.123768 3.047648 0.998934 0.631915 7.684292 -6.405983 5.157988 0.037531 -0.048987 5.164089 3.150228 0.539850 0.126610 0.394170 18.336981 -7.897246 4.622707 19.646082 11.320704 -38.141403 8.952255 -1.522174 -1.068519 0.149953 -0.752015 4.341804 0.124070 0.287770 0.207380 -3.238579 -5.034053 -8.258709 14.961085 -10.929084 14.876119 1.450368 -8.769648 -0.460188 0.427042 -8.050215 -11.133198 -15.524485 12.607855 19.137295 -3.139320 10.327630 -13.089860 -21.112660 -8.285625 4.413661 -20.537149 3.677428 -2.704682 -4.002904 -19.757223 -0.341836 -3.668074 3.071013 0.574500 0.165970 -0.101460 0.303580 21.629670 10.768322 7.619139 31.945783 -11.130811 -10.131530 32.713803 31.105907 4.665603 1.822052 -1.696225 -0.247780 0.214610 -0.127800 -0.292730 
-0.358300 16.467400 -2.164950 -12.629006 -21.421282 21.399175 -15.588772 13.330341 3.094773 0.777816 0.811118 7.703108 -6.165588 5.326126 1.240687 0.035798 5.114950 3.155326 0.504160 0.084360 0.383430 18.256441 -7.864668 4.676086 19.787393 11.358347 -36.053583 10.958234 -1.633920 -1.517501 0.100579 -0.858670 4.318827 0.049070 0.239700 0.204490 -3.030779 -5.400570 -8.422327 14.442532 -10.656600 16.311605 2.949257 -8.209146 -2.249940 1.059646 -8.414600 -11.738712 -16.602911 13.487976 21.162933 -3.327210 11.557260 -12.884190 -22.600830 -8.196095 5.118198 -22.460531 7.506841 -3.229884 -6.665736 -17.621140 -0.282847 -3.601704 3.089614 0.600980 0.117340 -0.062830 0.289900 22.102979 11.697823 7.689541 29.972560 -9.963496 -9.059824 30.463380 27.594519 3.830151 1.907775 -1.614088 -0.216410 0.168800 -0.135230 -0.288160 
-0.392720 16.468630 -2.056460 -13.687438 -23.365233 21.880848 -15.620655 13.505499 3.082240 0.717448 0.894415 7.149486 -6.235813 5.585909 3.195036 0.073361 5.110207 3.164604 0.456290 0.017650 0.364360 18.192972 -7.861740 4.724799 19.786929 11.410915 -34.222694 12.859581 -1.751749 -1.900431 0.060815 -1.003888 4.298035 -0.019470 0.238470 0.211170 -2.869734 -5.653536 -8.528831 14.148886 -10.159059 16.745479 4.070881 -7.554401 -3.498932 1.665639 -8.460139 -12.115264 -16.977678 13.958457 23.053635 -4.133510 12.651110 -11.990490 -23.551334 -7.815067 5.581134 -25.088154 10.489831 -3.754667 -9.093512 -15.021455 -0.430663 -3.598752 3.062503 0.623170 0.112130 -0.048800 0.287620 22.001519 12.035776 7.651015 29.428356 -9.058764 -8.422324 28.031183 24.665877 3.082468 1.962239 -1.523903 -0.213150 0.151480 -0.127800 -0.289460 
-0.432980 16.482290 -1.924420 -14.448971 -24.858972 22.192874 -15.630665 13.670857 3.036097 0.848878 0.892522 6.297889 -6.601669 6.002059 5.923659 0.113350 5.123215 3.153496 0.421860 -0.028520 0.371450 18.147832 -7.908737 4.741399 19.576524 11.242752 -32.300621 14.263905 -1.801916 -2.425940 0.020512 -1.130070 4.268808 -0.075270 0.207530 0.200330 -2.761981 -5.817628 -8.583544 14.168511 -9.594234 16.665908 4.756198 -6.844245 -4.604393 2.216947 -8.437324 -12.327742 -17.207926 14.198900 24.788154 -4.975280 13.618430 -11.439020 -23.837578 -7.014226 5.760406 -28.289562 12.545556 -4.342502 -11.459668 -11.964335 -0.714636 -3.593743 3.029069 0.638600 0.087850 -0.029170 0.270650 21.301676 11.788142 7.560992 30.522582 -8.486717 -8.222870 24.246558 22.202865 2.274236 2.041219 -1.423812 -0.204500 0.128490 -0.133020 -0.297140 
-0.468470 16.505980 -1.788710 -14.597373 -25.396944 22.140114 -15.608951 13.815725 2.949039 1.063630 0.793840 4.973923 -6.888065 6.530215 9.581361 0.123329 5.203206 3.106837 0.379000 -0.081900 0.342320 18.130237 -8.013092 4.739968 19.174201 10.908712 -30.774207 14.862322 -1.802804 -3.020391 0.001752 -1.232524 4.240773 -0.121690 0.204010 0.207590 -2.728080 -5.851352 -8.582030 14.329126 -9.113567 16.326197 5.015060 -6.242185 -5.497029 2.530265 -8.373866 -12.431474 -17.245969 14.075383 25.984719 -5.034750 13.686140 -10.653590 -24.034555 -6.337392 5.776978 -31.096179 13.987003 -4.860547 -13.663456 -9.090835 -1.098945 -3.620322 3.012602 0.644820 0.083320 -0.028910 0.253590 20.922377 11.422010 7.529909 31.978453 -8.607020 -8.285627 20.494155 20.192709 1.591157 2.086160 -1.343804 -0.197330 0.106550 -0.107730 -0.296550 
